<svg id="Capa_1" enable-background="new 0 0 512.004 512.004" height="512" viewBox="0 0 512.004 512.004" width="512" xmlns="http://www.w3.org/2000/svg"><g><path d="m256.002 230.23c-47.571 0-86.273 38.702-86.273 86.273s38.702 86.273 86.273 86.273 86.273-38.702 86.273-86.273-38.702-86.273-86.273-86.273zm0 157.547c-39.301 0-71.273-31.973-71.273-71.273s31.973-71.273 71.273-71.273 71.273 31.973 71.273 71.273-31.972 71.273-71.273 71.273z"/><path d="m256.002 269.617c-25.854 0-46.887 21.033-46.887 46.887s21.033 46.887 46.887 46.887 46.887-21.033 46.887-46.887-21.034-46.887-46.887-46.887zm0 78.773c-17.582 0-31.887-14.304-31.887-31.887s14.305-31.887 31.887-31.887 31.887 14.304 31.887 31.887-14.305 31.887-31.887 31.887z"/><path d="m470.806 199.361c7.846 0 14.229-6.383 14.229-14.229v-17.7c0-7.847-6.384-14.23-14.229-14.23h-66.946c-7.847 0-14.23 6.383-14.23 14.23v17.7c0 7.846 6.384 14.229 14.23 14.229zm-66.176-31.16h65.405v16.16h-65.405z"/><path d="m44.011 153.201c-7.847 0-14.23 6.383-14.23 14.23v17.7c0 7.846 6.384 14.229 14.23 14.229h18.58c7.846 0 14.229-6.383 14.229-14.229v-17.7c0-7.847-6.384-14.23-14.229-14.23zm17.809 31.16h-17.04v-16.16h17.04z"/><path d="m99.406 168.781c-4.143 0-7.5 3.358-7.5 7.5s3.357 7.5 7.5 7.5h61.719c4.143 0 7.5-3.358 7.5-7.5s-3.357-7.5-7.5-7.5z"/><path d="m491.511 127.905h-19.341v-13.795c0-11.3-9.193-20.494-20.494-20.494h-63.523c-11.301 0-20.494 9.193-20.494 20.494v13.795h-94.156c-4.143 0-7.5 3.358-7.5 7.5s3.357 7.5 7.5 7.5h218.009c3.029 0 5.493 2.464 5.493 5.494v61.258h-189.12c-15.704-7.647-33.187-11.911-51.883-11.911-17.746 0-35.347 3.858-51.883 11.911h-189.119v-61.258c0-3.029 2.464-5.494 5.493-5.494h218.009c4.143 0 7.5-3.358 7.5-7.5s-3.357-7.5-7.5-7.5h-33.742v-35.27c0-8.763-7.129-15.892-15.892-15.892h-23.28c-8.763 0-15.892 7.129-15.892 15.892v35.271h-18.632v-13.796c0-11.3-9.193-20.494-20.494-20.494h-37.151c-11.3 0-20.493 9.193-20.493 20.494v13.795h-32.433c-11.3 0-20.493 9.194-20.493 20.494v266.368c0 11.3 9.193 20.494 20.493 20.494h471.018c11.3 0 20.493-9.193 20.493-20.494 0-11.914 0-79.26 0-89.265 0-4.142-3.357-7.5-7.5-7.5s-7.5 3.358-7.5 7.5v62.191h-146.007c15.607-20.791 23.943-45.956 23.752-71.988-.226-35.021-15.686-68.412-43.389-91.049h165.645v65.845c0 4.142 3.357 7.5 7.5 7.5s7.5-3.358 7.5-7.5c0-2.457 0-138.162 0-142.103-.001-11.299-9.194-20.493-20.494-20.493zm-34.341 0h-74.512v-13.795c0-3.029 2.465-5.494 5.494-5.494h63.523c3.029 0 5.494 2.464 5.494 5.494v13.795zm-292.474-35.27c0-.475.417-.892.892-.892h23.28c.475 0 .892.417.892.892v35.271h-25.063v-35.271zm-96.77 21.475c0-3.029 2.464-5.494 5.493-5.494h37.151c3.029 0 5.494 2.464 5.494 5.494v13.795h-48.138zm-52.926 110.547h165.645c-27.046 22.099-43.4 55.419-43.4 91.847 0 25.683 8.258 50.525 23.762 71.19h-146.007zm5.493 195.604c-3.029 0-5.493-2.464-5.493-5.494v-12.074h159.303c7.271 6.902 15.27 12.782 23.817 17.567h-177.627zm476.511-17.568v12.074c0 3.029-2.464 5.494-5.493 5.494h-177.627c8.548-4.785 16.546-10.665 23.817-17.567h159.303zm-137.248-86.401c0 .07.003.141.003.211 0 57.208-46.541 103.757-103.757 103.757-57.17 0-103.758-46.507-103.758-103.757 0-57.22 46.559-103.757 103.758-103.757 56.775 0 103.643 46.079 103.754 103.546z"/></g></svg>